<?xml version="1.0" ?><!DOCTYPE svg  PUBLIC '-//W3C//DTD SVG 1.1//EN'  'http://www.w3.org/Graphics/SVG/1.1/DTD/svg11.dtd'><svg enable-background="new 0 0 48 48" height="48px" id="Layer_3" version="1.1" viewBox="0 0 48 48" width="48px" xml:space="preserve" xmlns="http://www.w3.org/2000/svg" xmlns:xlink="http://www.w3.org/1999/xlink"><path d="M48,24c0-12.576-9.675-22.886-21.986-23.91C26.009,0.087,26.005,0.083,26,0.081v0.009  C25.34,0.035,24.674,0,24,0s-1.34,0.035-2,0.089V0.081c-0.005,0.003-0.009,0.007-0.014,0.01C9.675,1.114,0,11.424,0,24  s9.674,22.886,21.986,23.909c0.005,0.004,0.009,0.008,0.014,0.011v-0.01c0.66,0.055,1.326,0.09,2,0.09s1.34-0.035,2-0.09v0.01  c0.005-0.003,0.01-0.007,0.015-0.011C38.325,46.886,48,36.576,48,24z M4,24c0-1.392,0.144-2.75,0.415-4.062h6.154  c-0.165,1.326-0.256,2.681-0.256,4.062c0,2.085,0.204,4.111,0.571,6.062H4.941C4.333,28.149,4,26.114,4,24z M14.13,24  c0-1.387,0.106-2.744,0.304-4.062H22v10.125h-7.183C14.374,28.131,14.13,26.101,14.13,24z M32.647,15.938H26V5.505  C28.988,8.111,31.321,11.729,32.647,15.938z M22,5.505v10.432h-6.647C16.679,11.729,19.012,8.111,22,5.505z M22,34.062v8.432  c-2.502-2.182-4.539-5.077-5.916-8.432H22z M26,42.494v-8.432h5.916C30.539,37.417,28.502,40.312,26,42.494z M26,30.062V19.938  h7.566c0.198,1.319,0.304,2.676,0.304,4.062c0,2.101-0.244,4.131-0.688,6.062H26z M37.431,19.938h6.155  C43.856,21.25,44,22.608,44,24c0,2.114-0.333,4.149-0.941,6.062h-5.942c0.368-1.951,0.571-3.978,0.571-6.062  C37.688,22.619,37.596,21.264,37.431,19.938z M42.295,15.938h-5.626c-1.002-3.905-2.704-7.44-4.943-10.388  C36.443,7.528,40.232,11.265,42.295,15.938z M16.274,5.55c-2.239,2.947-3.941,6.483-4.943,10.388H5.706  C7.768,11.265,11.557,7.528,16.274,5.55z M6.735,34.062h5.182c1.027,3.114,2.508,5.953,4.358,8.388  C12.253,40.765,8.915,37.794,6.735,34.062z M31.726,42.45c1.85-2.435,3.33-5.273,4.357-8.388h5.182  C39.085,37.794,35.746,40.765,31.726,42.45z" fill="white"/></svg>